<svg width="1221" height="254" viewBox="0 0 1221 254" fill="none" xmlns="http://www.w3.org/2000/svg">
<circle cx="54.9237" cy="181.89" r="54.9237" fill="#7ECEF4"/>
<path d="M244.408 165.032C257.224 188.129 248.89 217.242 225.793 230.059V230.059C202.696 242.876 173.582 234.542 160.765 211.444L92.396 88.2339C79.5794 65.1368 87.9134 36.0231 111.011 23.2065V23.2065C134.108 10.3899 163.221 18.7239 176.038 41.821L244.408 165.032Z" fill="#1D2088"/>
<rect x="401" y="206.853" width="95.6564" height="236.565" rx="47.8282" transform="rotate(150.974 401 206.853)" fill="#1D2088"/>
<path d="M438.9 168V156.9H453V78.9H438.9V67.8H481.2V78.9H467.1V156.9H481.2V168H438.9ZM502.509 168V67.8H516.609V155.85H570.459V168H502.509ZM583.369 168V67.8H597.469V155.85H651.319V168H583.369ZM664.228 168V67.8H732.178V79.95H678.328V110.4H718.078V122.55H678.328V155.85H732.178V168H664.228ZM749.336 168V67.8H770.186L815.786 153V67.8H829.886V168H809.186L763.436 82.35V168H749.336ZM851.254 168V156.9H865.354V78.9H851.254V67.8H893.554V78.9H879.454V156.9H893.554V168H851.254ZM955.213 169.8C940.713 169.8 930.363 166.2 924.163 159C917.963 151.7 914.863 140.75 914.863 126.15V67.8H928.963V127.2C928.963 137.1 930.913 144.65 934.813 149.85C938.813 155.05 945.613 157.65 955.213 157.65C964.813 157.65 971.563 155.05 975.463 149.85C979.463 144.65 981.463 137.1 981.463 127.2V67.8H995.563V126.15C995.563 140.75 992.463 151.7 986.263 159C980.163 166.2 969.813 169.8 955.213 169.8ZM1018.43 168V67.8H1041.83L1068.53 149.7L1095.23 67.8H1118.63V168H1104.53V82.5L1075.58 168H1061.63L1032.53 82.5V168H1018.43Z" fill="black"/>
<path d="M955.04 38V11.28H973.16V14.52H958.8V22.64H969.4V25.88H958.8V34.76H973.16V38H955.04ZM986.535 38.48C985.069 38.48 983.642 38.2533 982.255 37.8C980.869 37.3467 979.642 36.6533 978.575 35.72C977.535 34.7867 976.775 33.6 976.295 32.16L979.775 31.12C980.095 32.08 980.615 32.88 981.335 33.52C982.055 34.1333 982.882 34.5867 983.815 34.88C984.775 35.1733 985.735 35.32 986.695 35.32C987.762 35.32 988.775 35.1467 989.735 34.8C990.695 34.4533 991.469 33.9333 992.055 33.24C992.669 32.52 992.975 31.6267 992.975 30.56C992.975 29.4667 992.575 28.6 991.775 27.96C990.975 27.32 989.589 26.7467 987.615 26.24L984.215 25.48C982.989 25.16 981.775 24.7333 980.575 24.2C979.402 23.6667 978.429 22.9067 977.655 21.92C976.909 20.9333 976.535 19.6133 976.535 17.96C976.535 16.44 977.002 15.1467 977.935 14.08C978.895 13.0133 980.122 12.2 981.615 11.64C983.135 11.08 984.709 10.8 986.335 10.8C987.589 10.8 988.815 10.9867 990.015 11.36C991.242 11.7067 992.335 12.2533 993.295 13C994.282 13.72 995.055 14.6533 995.615 15.8L992.175 16.8C991.669 15.8667 990.842 15.16 989.695 14.68C988.575 14.2 987.402 13.96 986.175 13.96C985.215 13.96 984.295 14.12 983.415 14.44C982.535 14.7333 981.815 15.1867 981.255 15.8C980.695 16.4133 980.415 17.1867 980.415 18.12C980.415 19 980.669 19.7067 981.175 20.24C981.709 20.7733 982.402 21.2 983.255 21.52C984.135 21.8133 985.095 22.08 986.135 22.32L989.055 22.96C990.415 23.28 991.695 23.72 992.895 24.28C994.095 24.84 995.069 25.6267 995.815 26.64C996.562 27.6533 996.935 29.0133 996.935 30.72C996.935 31.9467 996.642 33.0533 996.055 34.04C995.469 35 994.682 35.8133 993.695 36.48C992.709 37.12 991.589 37.6133 990.335 37.96C989.109 38.3067 987.842 38.48 986.535 38.48ZM1007.8 38V14.52H998.923V11.28H1020.44V14.52H1011.56V38H1007.8ZM1033.4 38V35C1036.55 32.68 1039.23 30.5467 1041.44 28.6C1043.68 26.6533 1045.39 24.84 1046.56 23.16C1047.76 21.4533 1048.36 19.8133 1048.36 18.24C1048.36 16.8533 1047.92 15.7333 1047.04 14.88C1046.16 14.0267 1044.93 13.6 1043.36 13.6C1042.11 13.6 1040.93 13.9467 1039.84 14.64C1038.77 15.3067 1038.08 16.4533 1037.76 18.08L1034.4 17.12C1034.88 15.1733 1035.92 13.64 1037.52 12.52C1039.12 11.3733 1041.09 10.8 1043.44 10.8C1045.09 10.8 1046.55 11.08 1047.8 11.64C1049.08 12.1733 1050.08 12.96 1050.8 14C1051.55 15.04 1051.92 16.3067 1051.92 17.8C1051.92 19.3467 1051.55 20.8667 1050.8 22.36C1050.05 23.8267 1049.03 25.2667 1047.72 26.68C1046.41 28.0667 1044.92 29.4533 1043.24 30.84C1041.56 32.2 1039.79 33.56 1037.92 34.92H1052.64V38H1033.4ZM1066.95 38.48C1063.51 38.48 1060.89 37.2933 1059.07 34.92C1057.29 32.52 1056.39 29.08 1056.39 24.6C1056.39 20.1467 1057.29 16.7333 1059.07 14.36C1060.89 11.9867 1063.51 10.8 1066.95 10.8C1070.39 10.8 1073.01 11.9867 1074.79 14.36C1076.61 16.7333 1077.51 20.1467 1077.51 24.6C1077.51 29.08 1076.61 32.52 1074.79 34.92C1073.01 37.2933 1070.39 38.48 1066.95 38.48ZM1073.19 30.4C1073.65 28.8 1073.87 26.8667 1073.87 24.6C1073.87 21.1067 1073.3 18.4267 1072.15 16.56C1071.03 14.6933 1069.3 13.76 1066.95 13.76C1065.22 13.76 1063.79 14.2933 1062.67 15.36L1073.19 30.4ZM1066.95 35.52C1068.79 35.52 1070.27 34.92 1071.39 33.72L1060.83 18.56C1060.57 19.3867 1060.37 20.3067 1060.23 21.32C1060.1 22.3333 1060.03 23.4267 1060.03 24.6C1060.03 28.0933 1060.59 30.7867 1061.71 32.68C1062.86 34.5733 1064.61 35.52 1066.95 35.52ZM1080.55 38V35C1083.69 32.68 1086.37 30.5467 1088.59 28.6C1090.83 26.6533 1092.53 24.84 1093.71 23.16C1094.91 21.4533 1095.51 19.8133 1095.51 18.24C1095.51 16.8533 1095.07 15.7333 1094.19 14.88C1093.31 14.0267 1092.08 13.6 1090.51 13.6C1089.25 13.6 1088.08 13.9467 1086.99 14.64C1085.92 15.3067 1085.23 16.4533 1084.91 18.08L1081.55 17.12C1082.03 15.1733 1083.07 13.64 1084.67 12.52C1086.27 11.3733 1088.24 10.8 1090.59 10.8C1092.24 10.8 1093.69 11.08 1094.95 11.64C1096.23 12.1733 1097.23 12.96 1097.95 14C1098.69 15.04 1099.07 16.3067 1099.07 17.8C1099.07 19.3467 1098.69 20.8667 1097.95 22.36C1097.2 23.8267 1096.17 25.2667 1094.87 26.68C1093.56 28.0667 1092.07 29.4533 1090.39 30.84C1088.71 32.2 1086.93 33.56 1085.07 34.92H1099.79V38H1080.55ZM1112.02 38.48C1110.23 38.48 1108.7 38.1867 1107.42 37.6C1106.17 37.0133 1105.17 36.2267 1104.42 35.24C1103.67 34.2533 1103.14 33.16 1102.82 31.96L1106.14 31C1106.43 32.3867 1107.06 33.52 1108.02 34.4C1109.01 35.2533 1110.35 35.68 1112.06 35.68C1113.82 35.68 1115.26 35.24 1116.38 34.36C1117.53 33.4533 1118.1 32.1733 1118.1 30.52C1118.1 29.5067 1117.89 28.68 1117.46 28.04C1117.03 27.3733 1116.49 26.8667 1115.82 26.52C1115.15 26.1733 1114.43 25.92 1113.66 25.76C1112.91 25.6 1112.19 25.5067 1111.5 25.48C1110.83 25.4533 1110.29 25.44 1109.86 25.44V22.4C1110.61 22.4 1111.41 22.36 1112.26 22.28C1113.14 22.2 1113.97 22.0267 1114.74 21.76C1115.54 21.4667 1116.18 21.0267 1116.66 20.44C1117.17 19.8267 1117.42 19 1117.42 17.96C1117.42 16.52 1116.9 15.44 1115.86 14.72C1114.85 13.9733 1113.63 13.6 1112.22 13.6C1110.59 13.6 1109.3 14.0133 1108.34 14.84C1107.38 15.6667 1106.77 16.7467 1106.5 18.08L1103.22 17.12C1103.7 15.2267 1104.71 13.7067 1106.26 12.56C1107.83 11.3867 1109.85 10.8 1112.3 10.8C1113.85 10.8 1115.27 11.0267 1116.58 11.48C1117.89 11.9067 1118.94 12.6267 1119.74 13.64C1120.54 14.6267 1120.94 15.9467 1120.94 17.6C1120.94 18.96 1120.57 20.1867 1119.82 21.28C1119.07 22.3733 1117.99 23.2133 1116.58 23.8C1118.58 24.4133 1119.93 25.3333 1120.62 26.56C1121.34 27.76 1121.7 29.0667 1121.7 30.48C1121.7 32.2667 1121.25 33.76 1120.34 34.96C1119.43 36.1333 1118.25 37.0133 1116.78 37.6C1115.31 38.1867 1113.73 38.48 1112.02 38.48Z" fill="black"/>
</svg>
